<svg width="66" height="66" viewBox="0 0 66 66" fill="none" xmlns="http://www.w3.org/2000/svg">
<path d="M33 2.75C27.0171 2.75 21.1686 4.52413 16.194 7.84804C11.2194 11.172 7.34221 15.8964 5.05266 21.4238C2.76311 26.9513 2.16406 33.0336 3.33126 38.9015C4.49846 44.7694 7.3795 50.1594 11.61 54.39C15.8406 58.6205 21.2306 61.5016 27.0985 62.6688C32.9665 63.836 39.0487 63.2369 44.5762 60.9474C50.1037 58.6578 54.8281 54.7806 58.152 49.806C61.4759 44.8314 63.25 38.9829 63.25 33C63.25 24.9772 60.063 17.283 54.39 11.61C48.717 5.93705 41.0228 2.75 33 2.75ZM33 57.75C28.1049 57.75 23.3198 56.2984 19.2496 53.5789C15.1795 50.8593 12.0073 46.9939 10.134 42.4714C8.26073 37.9489 7.77059 32.9725 8.72558 28.1715C9.68056 23.3705 12.0378 18.9605 15.4991 15.4991C18.9605 12.0378 23.3705 9.68055 28.1715 8.72556C32.9726 7.77058 37.949 8.26071 42.4714 10.134C46.9939 12.0073 50.8593 15.1795 53.5789 19.2496C56.2985 23.3198 57.75 28.1049 57.75 33C57.75 39.5641 55.1424 45.8594 50.5009 50.5009C45.8594 55.1424 39.5641 57.75 33 57.75ZM38.5 19.25V16.5C38.5 15.7707 38.2103 15.0712 37.6946 14.5555C37.1788 14.0397 36.4794 13.75 35.75 13.75C35.0207 13.75 34.3212 14.0397 33.8055 14.5555C33.2897 15.0712 33 15.7707 33 16.5V19.25H30.25V16.5C30.25 15.7707 29.9603 15.0712 29.4446 14.5555C28.9288 14.0397 28.2294 13.75 27.5 13.75C26.7707 13.75 26.0712 14.0397 25.5555 14.5555C25.0397 15.0712 24.75 15.7707 24.75 16.5V19.25H22C21.2707 19.25 20.5712 19.5397 20.0555 20.0555C19.5397 20.5712 19.25 21.2707 19.25 22C19.25 22.7293 19.5397 23.4288 20.0555 23.9445C20.5712 24.4603 21.2707 24.75 22 24.75H24.75V41.25H22C21.2707 41.25 20.5712 41.5397 20.0555 42.0555C19.5397 42.5712 19.25 43.2707 19.25 44C19.25 44.7293 19.5397 45.4288 20.0555 45.9445C20.5712 46.4603 21.2707 46.75 22 46.75H24.75V49.5C24.75 50.2294 25.0397 50.9288 25.5555 51.4445C26.0712 51.9603 26.7707 52.25 27.5 52.25C28.2294 52.25 28.9288 51.9603 29.4446 51.4445C29.9603 50.9288 30.25 50.2294 30.25 49.5V46.75H33V49.5C33 50.2294 33.2897 50.9288 33.8055 51.4445C34.3212 51.9603 35.0207 52.25 35.75 52.25C36.4794 52.25 37.1788 51.9603 37.6946 51.4445C38.2103 50.9288 38.5 50.2294 38.5 49.5V46.75C40.688 46.75 42.7865 45.8808 44.3336 44.3336C45.8808 42.7865 46.75 40.688 46.75 38.5C46.7454 36.4685 45.9914 34.5101 44.6325 33C45.9914 31.4899 46.7454 29.5315 46.75 27.5C46.75 25.312 45.8808 23.2135 44.3336 21.6664C42.7865 20.1192 40.688 19.25 38.5 19.25ZM38.5 41.25H30.25V35.75H38.5C39.2294 35.75 39.9288 36.0397 40.4446 36.5555C40.9603 37.0712 41.25 37.7707 41.25 38.5C41.25 39.2293 40.9603 39.9288 40.4446 40.4445C39.9288 40.9603 39.2294 41.25 38.5 41.25ZM38.5 30.25H30.25V24.75H38.5C39.2294 24.75 39.9288 25.0397 40.4446 25.5555C40.9603 26.0712 41.25 26.7707 41.25 27.5C41.25 28.2293 40.9603 28.9288 40.4446 29.4445C39.9288 29.9603 39.2294 30.25 38.5 30.25Z" fill="#5A45FF"/>
</svg>
