<svg width="66" height="66" viewBox="0 0 66 66" fill="none" xmlns="http://www.w3.org/2000/svg">
<path d="M41.2501 30.25H35.7501V19.25C35.7501 18.5207 35.4604 17.8212 34.9447 17.3055C34.429 16.7897 33.7295 16.5 33.0001 16.5C32.2708 16.5 31.5713 16.7897 31.0556 17.3055C30.5399 17.8212 30.2501 18.5207 30.2501 19.25V33C30.2501 33.7293 30.5399 34.4288 31.0556 34.9445C31.5713 35.4603 32.2708 35.75 33.0001 35.75H41.2501C41.9795 35.75 42.679 35.4603 43.1947 34.9445C43.7104 34.4288 44.0001 33.7293 44.0001 33C44.0001 32.2707 43.7104 31.5712 43.1947 31.0555C42.679 30.5397 41.9795 30.25 41.2501 30.25ZM33.0001 5.5C27.5611 5.5 22.2443 7.11285 17.722 10.1346C13.1996 13.1563 9.67486 17.4512 7.59345 22.4762C5.51204 27.5012 4.96745 33.0305 6.02854 38.365C7.08963 43.6995 9.70875 48.5995 13.5547 52.4454C17.4006 56.2914 22.3007 58.9105 27.6352 59.9716C32.9696 61.0327 38.499 60.4881 43.5239 58.4067C48.5489 56.3253 52.8438 52.8005 55.8655 48.2782C58.8873 43.7558 60.5001 38.439 60.5001 33C60.5001 29.3886 59.7888 25.8127 58.4068 22.4762C57.0248 19.1397 54.9992 16.1082 52.4456 13.5546C49.892 11.001 46.8604 8.97532 43.5239 7.59331C40.1875 6.21131 36.6115 5.5 33.0001 5.5ZM33.0001 55C28.6489 55 24.3955 53.7097 20.7776 51.2923C17.1597 48.8749 14.3399 45.439 12.6748 41.419C11.0097 37.3991 10.574 32.9756 11.4229 28.708C12.2717 24.4404 14.367 20.5204 17.4438 17.4437C20.5205 14.3669 24.4406 12.2716 28.7081 11.4227C32.9757 10.5738 37.3992 11.0095 41.4192 12.6747C45.4391 14.3398 48.8751 17.1596 51.2925 20.7775C53.7099 24.3953 55.0001 28.6488 55.0001 33C55.0001 38.8348 52.6823 44.4305 48.5565 48.5563C44.4307 52.6821 38.8349 55 33.0001 55Z" fill="#5A45FF"/>
</svg>
