<svg width="66" height="66" viewBox="0 0 66 66" fill="none" xmlns="http://www.w3.org/2000/svg">
<path d="M22.0002 30.25C21.4563 30.25 20.9247 30.4113 20.4724 30.7135C20.0202 31.0156 19.6677 31.4451 19.4596 31.9476C19.2514 32.4501 19.197 33.003 19.3031 33.5365C19.4092 34.0699 19.6711 34.5599 20.0557 34.9445C20.4403 35.3291 20.9303 35.5911 21.4637 35.6972C21.9972 35.8033 22.5501 35.7488 23.0526 35.5407C23.5551 35.3325 23.9846 34.9801 24.2868 34.5278C24.589 34.0756 24.7502 33.5439 24.7502 33C24.7502 32.2707 24.4605 31.5712 23.9448 31.0555C23.4291 30.5397 22.7296 30.25 22.0002 30.25ZM33.0002 30.25C32.4563 30.25 31.9247 30.4113 31.4724 30.7135C31.0202 31.0156 30.6677 31.4451 30.4596 31.9476C30.2514 32.4501 30.197 33.003 30.3031 33.5365C30.4092 34.0699 30.6711 34.5599 31.0557 34.9445C31.4403 35.3291 31.9303 35.5911 32.4637 35.6972C32.9972 35.8033 33.5501 35.7488 34.0526 35.5407C34.5551 35.3325 34.9846 34.9801 35.2868 34.5278C35.589 34.0756 35.7502 33.5439 35.7502 33C35.7502 32.2707 35.4605 31.5712 34.9448 31.0555C34.4291 30.5397 33.7296 30.25 33.0002 30.25ZM44.0002 30.25C43.4563 30.25 42.9247 30.4113 42.4724 30.7135C42.0202 31.0156 41.6677 31.4451 41.4596 31.9476C41.2514 32.4501 41.197 33.003 41.3031 33.5365C41.4092 34.0699 41.6711 34.5599 42.0557 34.9445C42.4403 35.3291 42.9303 35.5911 43.4637 35.6972C43.9972 35.8033 44.5501 35.7488 45.0526 35.5407C45.5551 35.3325 45.9846 34.9801 46.2868 34.5278C46.589 34.0756 46.7502 33.5439 46.7502 33C46.7502 32.2707 46.4605 31.5712 45.9448 31.0555C45.4291 30.5397 44.7296 30.25 44.0002 30.25ZM33.0002 5.5C29.3889 5.5 25.8129 6.21131 22.4764 7.59331C19.14 8.97532 16.1084 11.001 13.5548 13.5546C8.39756 18.7118 5.50024 25.7065 5.50024 33C5.4762 39.3501 7.67492 45.5085 11.7152 50.4075L6.21524 55.9075C5.83366 56.2942 5.57517 56.7853 5.47239 57.3188C5.36961 57.8522 5.42715 58.4042 5.63774 58.905C5.86615 59.3998 6.23643 59.8156 6.70157 60.0996C7.16671 60.3836 7.70574 60.5229 8.25024 60.5H33.0002C40.2937 60.5 47.2884 57.6027 52.4457 52.4454C57.6029 47.2882 60.5002 40.2935 60.5002 33C60.5002 25.7065 57.6029 18.7118 52.4457 13.5546C47.2884 8.39731 40.2937 5.5 33.0002 5.5ZM33.0002 55H14.8777L17.4352 52.4425C17.6951 52.1878 17.9018 51.8841 18.0434 51.5489C18.185 51.2138 18.2587 50.8538 18.2602 50.49C18.2499 49.7646 17.9534 49.0727 17.4352 48.565C13.8344 44.9681 11.592 40.234 11.0901 35.1692C10.5883 30.1044 11.8581 25.0223 14.6831 20.7887C17.5082 16.5551 21.7137 13.432 26.5832 11.9514C31.4527 10.4709 36.6849 10.7245 41.3883 12.669C46.0918 14.6136 49.9756 18.1288 52.378 22.6157C54.7803 27.1026 55.5526 32.2837 54.5633 37.2763C53.5741 42.2688 50.8843 46.7639 46.9525 49.9957C43.0206 53.2274 38.0898 54.996 33.0002 55Z" fill="#5A45FF"/>
</svg>
