<svg width="61" height="66" viewBox="0 0 61 66" fill="none" xmlns="http://www.w3.org/2000/svg">
<path d="M45.9064 27.4995C45.9064 26.7702 45.6416 26.0707 45.1703 25.555C44.699 25.0393 44.0598 24.7495 43.3933 24.7495H14.2667L20.0468 18.452C20.52 17.9342 20.7859 17.2319 20.7859 16.4995C20.7859 15.7672 20.52 15.0649 20.0468 14.547C19.5736 14.0292 18.9317 13.7383 18.2625 13.7383C17.5933 13.7383 16.9514 14.0292 16.4782 14.547L6.4259 25.547C6.07719 25.9338 5.84097 26.4248 5.74704 26.9583C5.65312 27.4918 5.7057 28.0437 5.89815 28.5445C6.08668 29.0467 6.40684 29.4766 6.81828 29.7801C7.22972 30.0835 7.71404 30.2468 8.21018 30.2495H43.3933C44.0598 30.2495 44.699 29.9598 45.1703 29.4441C45.6416 28.9284 45.9064 28.2289 45.9064 27.4995ZM55.7576 37.4545C55.5691 36.9523 55.2489 36.5224 54.8375 36.219C54.4261 35.9156 53.9417 35.7522 53.4456 35.7495H18.2625C17.596 35.7495 16.9568 36.0393 16.4855 36.555C16.0142 37.0707 15.7494 37.7702 15.7494 38.4995C15.7494 39.2289 16.0142 39.9284 16.4855 40.4441C16.9568 40.9598 17.596 41.2495 18.2625 41.2495H47.3891L41.609 47.547C41.3735 47.8027 41.1865 48.1068 41.0589 48.4419C40.9313 48.7771 40.8656 49.1365 40.8656 49.4995C40.8656 49.8626 40.9313 50.222 41.0589 50.5571C41.1865 50.8922 41.3735 51.1964 41.609 51.452C41.8426 51.7098 42.1206 51.9144 42.4268 52.054C42.7331 52.1936 43.0615 52.2655 43.3933 52.2655C43.725 52.2655 44.0535 52.1936 44.3598 52.054C44.666 51.9144 44.944 51.7098 45.1776 51.452L55.2299 40.452C55.5786 40.0653 55.8148 39.5742 55.9087 39.0408C56.0027 38.5073 55.9501 37.9553 55.7576 37.4545Z" fill="#5A45FF"/>
</svg>
