<svg width="66" height="66" viewBox="0 0 66 66" fill="none" xmlns="http://www.w3.org/2000/svg">
<path d="M46.9973 7.75464C44.4681 5.6745 41.5065 4.18522 38.3284 3.39546C35.1503 2.6057 31.836 2.53538 28.6273 3.18964C24.3549 4.05265 20.4351 6.16534 17.3652 9.25966C14.2954 12.354 12.2139 16.2905 11.3848 20.5696C10.7794 23.7781 10.8894 27.0807 11.707 30.2418C12.5246 33.4028 14.0297 36.3446 16.1148 38.8571C18.05 41.0408 19.1592 43.8333 19.2498 46.7496V54.9996C19.2498 57.1877 20.119 59.2861 21.6662 60.8333C23.2134 62.3804 25.3118 63.2496 27.4998 63.2496H38.4998C40.6879 63.2496 42.7863 62.3804 44.3335 60.8333C45.8806 59.2861 46.7498 57.1877 46.7498 54.9996V47.2721C46.8421 44.0523 48.025 40.9593 50.1048 38.4996C53.7489 33.9918 55.4667 28.2279 54.8848 22.4606C54.3029 16.6933 51.4684 11.3887 46.9973 7.69964V7.75464ZM41.2498 54.9996C41.2498 55.729 40.9601 56.4285 40.4444 56.9442C39.9287 57.4599 39.2292 57.7496 38.4998 57.7496H27.4998C26.7705 57.7496 26.071 57.4599 25.5553 56.9442C25.0396 56.4285 24.7498 55.729 24.7498 54.9996V52.2496H41.2498V54.9996ZM45.8423 35.0896C43.0772 38.3693 41.464 42.4652 41.2498 46.7496H35.7498V38.4996C35.7498 37.7703 35.4601 37.0708 34.9444 36.5551C34.4287 36.0394 33.7292 35.7496 32.9998 35.7496C32.2705 35.7496 31.571 36.0394 31.0553 36.5551C30.5396 37.0708 30.2498 37.7703 30.2498 38.4996V46.7496H24.7498C24.6773 42.5369 23.1189 38.4852 20.3498 35.3096C18.5229 33.1206 17.2943 30.4955 16.7839 27.6903C16.2736 24.8851 16.4989 21.9956 17.4378 19.3033C18.3768 16.6111 19.9974 14.2082 22.1415 12.3288C24.2857 10.4494 26.8803 9.15769 29.6723 8.57964C32.0719 8.08558 34.5513 8.13206 36.9306 8.71568C39.3099 9.2993 41.5294 10.4054 43.428 11.9538C45.3265 13.5021 46.8565 15.4538 47.9067 17.6671C48.957 19.8804 49.5012 22.2998 49.4998 24.7496C49.5202 28.5168 48.2268 32.1732 45.8423 35.0896Z" fill="#5A45FF"/>
</svg>
