<svg width="66" height="66" viewBox="0 0 66 66" fill="none" xmlns="http://www.w3.org/2000/svg">
<path d="M53.9825 10.0379C53.663 9.77942 53.2897 9.59586 52.8899 9.50068C52.4902 9.4055 52.0742 9.40112 51.6725 9.48786C48.734 10.1037 45.7005 10.1116 42.7588 9.51091C39.8171 8.91028 37.0294 7.71387 34.5675 5.99536C34.1072 5.67601 33.5603 5.50488 33 5.50488C32.4398 5.50488 31.8929 5.67601 31.4325 5.99536C28.9706 7.71387 26.183 8.91028 23.2413 9.51091C20.2996 10.1116 17.2661 10.1037 14.3275 9.48786C13.9258 9.40112 13.5098 9.4055 13.1101 9.50068C12.7103 9.59586 12.337 9.77942 12.0175 10.0379C11.6985 10.2967 11.4414 10.6237 11.2654 10.9949C11.0893 11.3661 10.9986 11.772 11 12.1829V32.6704C10.9976 36.6132 11.9371 40.4995 13.7405 44.0057C15.5438 47.512 18.1588 50.5366 21.3675 52.8279L31.405 59.9779C31.8708 60.3095 32.4283 60.4877 33 60.4877C33.5718 60.4877 34.1293 60.3095 34.595 59.9779L44.6325 52.8279C47.8413 50.5366 50.4562 47.512 52.2595 44.0057C54.0629 40.4995 55.0025 36.6132 55 32.6704V12.1829C55.0014 11.772 54.9107 11.3661 54.7347 10.9949C54.5586 10.6237 54.3016 10.2967 53.9825 10.0379ZM49.5 32.6704C49.5021 35.7359 48.7721 38.7577 47.3706 41.4842C45.9691 44.2106 43.9367 46.5629 41.4425 48.3454L33 54.3679L24.5575 48.3454C22.0634 46.5629 20.031 44.2106 18.6295 41.4842C17.228 38.7577 16.4979 35.7359 16.5 32.6704V15.3454C22.2652 15.8388 28.0391 14.5012 33 11.5229C37.9609 14.5012 43.7348 15.8388 49.5 15.3454V32.6704ZM37.235 26.3729L29.8375 33.7979L27.39 31.3229C26.8722 30.805 26.1698 30.5141 25.4375 30.5141C24.7052 30.5141 24.0029 30.805 23.485 31.3229C22.9672 31.8407 22.6763 32.543 22.6763 33.2754C22.6763 34.0077 22.9672 34.71 23.485 35.2279L27.885 39.6279C28.1407 39.8856 28.4448 40.0902 28.7799 40.2298C29.115 40.3694 29.4745 40.4413 29.8375 40.4413C30.2006 40.4413 30.56 40.3694 30.8951 40.2298C31.2302 40.0902 31.5344 39.8856 31.79 39.6279L41.25 30.2504C41.7679 29.7325 42.0588 29.0302 42.0588 28.2979C42.0588 27.5655 41.7679 26.8632 41.25 26.3454C40.7322 25.8275 40.0298 25.5366 39.2975 25.5366C38.5652 25.5366 37.8629 25.8275 37.345 26.3454L37.235 26.3729Z" fill="#5A45FF"/>
</svg>
