<svg width="30" height="30" viewBox="0 0 30 30" fill="none" xmlns="http://www.w3.org/2000/svg">
<path d="M7.23705 18.8001C7.40257 18.7528 7.58026 18.7758 7.72822 18.8638C8.97256 19.6038 10.3939 20 11.8748 20C16.3621 20 19.9998 16.3623 19.9998 11.875C19.9998 7.38769 16.3621 3.75 11.8748 3.75C7.38748 3.75 3.74979 7.38769 3.74979 11.875C3.74979 13.3559 4.14597 14.7772 4.88597 16.0216C4.97395 16.1695 4.99702 16.3472 4.94973 16.5127L4.0348 19.715L7.23705 18.8001ZM20.8482 9.15183C24.7609 10.337 27.4998 13.9604 27.4998 18.125C27.4998 19.7391 27.0908 21.2947 26.3243 22.6734L27.4757 26.7033C27.6104 27.1748 27.1746 27.6107 26.7031 27.476L22.6732 26.3246C21.2945 27.091 19.7389 27.5 18.1248 27.5C13.9642 27.5 10.3387 24.7658 9.15161 20.8483C8.51777 20.6562 7.90643 20.397 7.32638 20.0746L3.29649 21.226C2.82502 21.3607 2.38913 20.9248 2.52384 20.4533L3.67523 16.4234C2.90881 15.0447 2.49979 13.4891 2.49979 11.875C2.49979 6.69733 6.69712 2.5 11.8748 2.5C16.1054 2.5 19.6815 5.30224 20.8482 9.15183ZM21.1619 10.5861C21.2198 11.0074 21.2498 11.4377 21.2498 11.875C21.2498 17.0527 17.0525 21.25 11.8748 21.25C11.4402 21.25 11.0098 21.2203 10.5859 21.162C11.805 24.1907 14.7636 26.25 18.1248 26.25C19.6057 26.25 21.027 25.8538 22.2714 25.1138C22.4193 25.0258 22.597 25.0028 22.7625 25.0501L25.9648 25.965L25.0498 22.7627C25.0026 22.5972 25.0256 22.4195 25.1136 22.2716C25.8536 21.0272 26.2498 19.6059 26.2498 18.125C26.2498 14.7608 24.1872 11.8037 21.1619 10.5861Z" fill="#FEB850"/>
</svg>
