<svg width="30" height="30" viewBox="0 0 30 30" fill="none" xmlns="http://www.w3.org/2000/svg">
<path d="M7.5 21.25V13.75H5.625C4.58947 13.75 3.75 14.5894 3.75 15.625V19.375C3.75 20.4105 4.58947 21.25 5.625 21.25H7.5ZM17.3933 25H20.0731C20.8802 25 21.5967 24.4836 21.8519 23.7179L22.1368 22.8632C22.179 22.7364 22.2313 22.6151 22.2926 22.5H21.875C21.5298 22.5 21.25 22.2202 21.25 21.875V13.125C21.25 12.7798 21.5298 12.5 21.875 12.5H22.5V11.2305C22.5 7.08833 19.1421 3.73047 15 3.73047C10.8579 3.73047 7.5 7.08833 7.5 11.2305V12.5H8.125C8.47018 12.5 8.75 12.7798 8.75 13.125V21.875C8.75 22.2202 8.47018 22.5 8.125 22.5H5.625C3.89911 22.5 2.5 21.1009 2.5 19.375V15.625C2.5 13.8991 3.89911 12.5 5.625 12.5H6.25V11.2305C6.25 6.39798 10.1675 2.48047 15 2.48047C19.8325 2.48047 23.75 6.39798 23.75 11.2305V12.5H24.375C26.1009 12.5 27.5 13.8991 27.5 15.625V19.375C27.5 21.1009 26.1009 22.5 24.375 22.5C23.8975 22.5 23.4736 22.8055 23.3226 23.2585L23.0377 24.1132C22.6124 25.3893 21.4182 26.25 20.0731 26.25H17.3933C17.1359 26.9782 16.4414 27.5 15.625 27.5H14.375C13.3395 27.5 12.5 26.6605 12.5 25.625C12.5 24.5894 13.3395 23.75 14.375 23.75H15.625C16.4414 23.75 17.1359 24.2717 17.3933 25ZM22.5 13.75V21.25H24.375C25.4105 21.25 26.25 20.4105 26.25 19.375V15.625C26.25 14.5894 25.4105 13.75 24.375 13.75H22.5ZM13.75 25.625C13.75 25.9702 14.0298 26.25 14.375 26.25H15.625C15.9702 26.25 16.25 25.9702 16.25 25.625C16.25 25.2798 15.9702 25 15.625 25H14.375C14.0298 25 13.75 25.2798 13.75 25.625Z" fill="#FEB850"/>
</svg>
