<svg width="30" height="30" viewBox="0 0 30 30" fill="none" xmlns="http://www.w3.org/2000/svg">
<path d="M4.80844 22.3253C5.05527 22.4449 5.3323 22.512 5.625 22.512H24.375C24.6677 22.512 24.9447 22.4449 25.1916 22.3253L17.8058 15.374L15.3973 17.3575C15.1665 17.5475 14.8335 17.5475 14.6027 17.3575L12.1942 15.374L4.80844 22.3253ZM3.92887 21.4373C3.93466 21.4314 3.94058 21.4256 3.94665 21.4199L11.2215 14.573L3.97769 8.60746C3.96189 8.59445 3.9469 8.58083 3.93271 8.56666C3.81559 8.81142 3.75 9.08555 3.75 9.375V20.637C3.75 20.9233 3.81415 21.1946 3.92887 21.4373ZM26.0711 21.4373C26.1859 21.1946 26.25 20.9233 26.25 20.637V9.375C26.25 9.08555 26.1844 8.81142 26.0673 8.56666C26.0531 8.58083 26.0381 8.59445 26.0223 8.60746L18.7785 14.573L26.0534 21.4199C26.0594 21.4256 26.0653 21.4314 26.0711 21.4373ZM25.1805 7.68137C24.9365 7.56509 24.6633 7.5 24.375 7.5H5.625C5.33666 7.5 5.06352 7.56509 4.81947 7.68137L15 16.0653L25.1805 7.68137ZM5.625 6.25H24.375C26.1009 6.25 27.5 7.64911 27.5 9.375V20.637C27.5 22.3629 26.1009 23.762 24.375 23.762H5.625C3.89911 23.762 2.5 22.3629 2.5 20.637V9.375C2.5 7.64911 3.89911 6.25 5.625 6.25Z" fill="#FEB850"/>
</svg>
