<svg width="30" height="30" viewBox="0 0 30 30" fill="none" xmlns="http://www.w3.org/2000/svg">
<path d="M27.4838 16.25C27.1696 22.3109 22.3109 27.1696 16.25 27.4838V29.375C16.25 29.7202 15.9702 30 15.625 30C15.2798 30 15 29.7202 15 29.375V27.4838C8.93912 27.1696 4.08044 22.3109 3.76617 16.25H1.875C1.52982 16.25 1.25 15.9702 1.25 15.625C1.25 15.2798 1.52982 15 1.875 15H3.76617C4.08044 8.93912 8.93912 4.08044 15 3.76617V1.875C15 1.52982 15.2798 1.25 15.625 1.25C15.9702 1.25 16.25 1.52982 16.25 1.875V3.76617C22.3109 4.08044 27.1696 8.93912 27.4838 15H29.375C29.7202 15 30 15.2798 30 15.625C30 15.9702 29.7202 16.25 29.375 16.25H27.4838ZM15.625 26.25C21.493 26.25 26.25 21.493 26.25 15.625C26.25 9.75697 21.493 5 15.625 5C9.75697 5 5 9.75697 5 15.625C5 21.493 9.75697 26.25 15.625 26.25ZM15.625 21.25C12.5184 21.25 10 18.7316 10 15.625C10 12.5184 12.5184 10 15.625 10C18.7316 10 21.25 12.5184 21.25 15.625C21.25 18.7316 18.7316 21.25 15.625 21.25ZM15.625 20C18.0412 20 20 18.0412 20 15.625C20 13.2088 18.0412 11.25 15.625 11.25C13.2088 11.25 11.25 13.2088 11.25 15.625C11.25 18.0412 13.2088 20 15.625 20Z" fill="#FEB850"/>
</svg>
